<?xml version="1.0" standalone="no"?>
<!DOCTYPE svg PUBLIC "-//W3C//DTD SVG 20010904//EN"
 "http://www.w3.org/TR/2001/REC-SVG-20010904/DTD/svg10.dtd">
<svg version="1.0" xmlns="http://www.w3.org/2000/svg"
 width="260.000000pt" height="260.000000pt" viewBox="0 0 260.000000 260.000000"
 preserveAspectRatio="xMidYMid meet">
<metadata>
Created by potrace 1.11, written by Peter Selinger 2001-2013
</metadata>
<g transform="translate(0.000000,260.000000) scale(0.100000,-0.100000)"
fill="#000000" stroke="none">
<path d="M1211 2225 c-88 -101 -27 -173 155 -183 53 -3 94 -9 94 -15 0 -5 -29
-100 -65 -210 -36 -110 -95 -299 -131 -421 -134 -459 -160 -523 -235 -590 -68
-62 -158 -57 -229 14 -63 63 -62 76 13 165 159 190 246 406 187 465 -39 39
-115 39 -171 -1 -96 -68 -161 -297 -131 -459 12 -66 5 -77 -71 -115 -140 -69
-257 11 -203 140 17 40 46 58 81 49 37 -9 61 2 45 21 -18 21 -77 19 -110 -5
-30 -22 -60 -85 -60 -128 0 -41 32 -93 71 -114 51 -29 141 -20 213 21 l56 31
19 -38 c42 -82 107 -125 191 -126 71 0 123 27 184 95 91 102 149 248 361 912
l98 307 42 0 c99 0 202 -56 231 -127 48 -114 -24 -314 -155 -436 -70 -66 -129
-91 -197 -84 -66 7 -86 -9 -44 -34 58 -36 87 -128 115 -364 33 -282 70 -410
140 -494 44 -52 136 -91 213 -91 105 0 160 37 183 123 22 84 -25 171 -93 171
-36 0 -88 -26 -88 -44 0 -16 46 -11 60 5 20 24 52 14 77 -24 44 -65 21 -146
-51 -181 -52 -25 -89 -25 -141 -1 -106 48 -143 145 -181 476 -25 225 -50 319
-103 394 l-20 28 38 11 c104 32 249 165 315 292 34 63 40 86 44 152 4 70 2 81
-22 122 -30 51 -90 92 -170 114 -31 9 -134 17 -266 21 -229 8 -282 19 -295 60
-8 27 20 80 50 91 14 5 25 16 25 25 0 27 -37 16 -69 -20z m-267 -835 c-1 -70
-47 -189 -117 -303 -68 -110 -85 -132 -94 -123 -5 4 -8 60 -7 124 0 95 4 129
23 182 41 119 102 184 166 178 29 -3 30 -4 29 -58z"/>
</g>
</svg>
